<?xml version="1.0" standalone="no"?>
<!DOCTYPE svg PUBLIC "-//W3C//DTD SVG 20010904//EN"
 "http://www.w3.org/TR/2001/REC-SVG-20010904/DTD/svg10.dtd">
<svg version="1.0" xmlns="http://www.w3.org/2000/svg"
 width="512.000000pt" height="512.000000pt" viewBox="0 0 512.000000 512.000000"
 preserveAspectRatio="xMidYMid meet">

<g transform="translate(0.000000,512.000000) scale(0.100000,-0.100000)"
fill="#000000" stroke="none">
<path d="M2310 5104 c-455 -58 -816 -187 -1157 -414 -497 -330 -860 -814
-1033 -1376 -86 -277 -105 -416 -104 -764 0 -263 2 -296 26 -430 183 -1004
916 -1793 1897 -2040 584 -147 1204 -81 1746 185 625 307 1092 845 1309 1509
83 253 119 492 120 781 0 298 -36 529 -123 793 -184 559 -531 1015 -1016 1337
-315 210 -634 334 -1025 401 -92 16 -554 28 -640 18z m890 -640 c0 -3 -130
-216 -288 -473 -159 -256 -298 -482 -310 -502 l-22 -36 32 -7 c26 -5 37 -2 54
16 11 13 175 243 364 511 189 269 348 491 355 493 9 4 802 -250 812 -259 1 -2
-240 -205 -537 -452 l-540 -448 88 -57 c86 -57 192 -143 224 -183 l16 -21 59
39 c32 22 62 40 67 40 14 0 176 -829 164 -836 -6 -4 -74 -21 -152 -38 -77 -17
-292 -64 -476 -106 -184 -42 -398 -89 -475 -106 -77 -17 -143 -33 -147 -35
-15 -10 6 -34 64 -74 33 -24 101 -82 152 -130 50 -47 143 -125 206 -171 159
-118 221 -178 285 -274 103 -155 246 -488 227 -530 -17 -36 -111 -149 -155
-184 -46 -37 -189 -109 -224 -113 -20 -3 -41 39 -227 446 -113 246 -207 451
-211 454 -10 10 -144 31 -283 44 -212 19 -429 -11 -523 -75 -19 -12 -44 -42
-57 -65 -22 -40 -24 -41 -46 -27 -21 14 -136 143 -156 174 -5 9 -52 -6 -174
-55 -101 -41 -170 -64 -174 -58 -4 6 -53 67 -109 136 -100 124 -101 126 -75
131 15 3 113 15 219 28 177 21 191 24 182 41 -9 16 -31 18 -246 20 l-237 3
-54 178 c-29 98 -52 180 -50 182 2 3 116 -27 253 -65 137 -38 251 -67 253 -65
2 2 1 12 -2 23 -5 14 -76 47 -281 128 l-275 108 6 75 c3 42 11 140 17 219 l12
143 243 -181 c133 -99 247 -180 252 -180 6 0 10 11 10 24 0 19 -52 68 -252
237 -139 117 -259 217 -266 224 -10 9 5 54 79 226 50 118 94 217 98 221 3 3
96 -124 206 -283 176 -255 201 -288 212 -273 7 10 13 22 13 27 0 5 -90 186
-200 402 l-200 392 225 217 c200 194 225 215 230 194 3 -13 37 -174 75 -358
98 -469 100 -480 110 -480 6 0 12 10 15 23 5 19 -21 375 -64 892 -5 60 -9 111
-7 112 8 8 631 252 634 248 4 -3 -130 -746 -168 -935 -5 -25 -6 -47 -4 -50 3
-2 17 2 31 10 24 14 40 59 175 510 81 272 155 519 163 548 l16 52 384 0 c212
0 385 -3 385 -6z m-860 -3090 l85 -29 -185 -6 c-213 -8 -252 -17 -358 -85 -40
-26 -76 -44 -79 -41 -3 4 10 32 29 64 58 98 149 135 318 129 82 -3 123 -10
190 -32z"/>
<path d="M2261 3259 c-317 -109 -578 -325 -709 -584 -61 -122 -102 -297 -102
-433 0 -222 111 -552 214 -638 38 -31 43 -39 30 -48 -12 -9 -12 -14 -2 -29 12
-16 18 -15 105 13 l91 31 -54 79 c-70 102 -156 281 -188 392 -69 238 -44 492
65 674 108 179 328 362 597 496 66 33 99 54 90 58 -33 18 -59 16 -137 -11z"/>
</g>
</svg>
